<svg xmlns="http://www.w3.org/2000/svg" width="85.867" height="106.232" viewBox="0 0 85.867 106.232">
  <g id="Group_615" data-name="Group 615" transform="translate(-18.778 0)">
    <g id="Group_614" data-name="Group 614" transform="translate(-224.393 -116.542)">
      <path id="Path_232" data-name="Path 232" d="M332.979,131.782v78.648H252.171V131.782H275.4v36.712a1.079,1.079,0,0,0,.644.988l16.094,7.094c.028.012.059.018.087.028s.05.018.076.025a.966.966,0,0,0,.544,0c.026-.007.051-.016.076-.025s.059-.015.087-.028l16.095-7.094a1.079,1.079,0,0,0,.644-.988V131.782Zm-26.987,36.712-12.337-5.438v10.876l4.79-2.111Zm1.6-16.71-13.935,6.142v2.77l13.935,6.142Zm0-18.346-13.935,6.142v2.75l13.935,6.142ZM293.655,144.69v10.876l12.337-5.438Zm-2.16,10.876V144.69l-12.337,5.438Zm-4.79,16.255,4.79,2.111V163.057l-12.337,5.438Zm4.79-13.895-13.935-6.142v15.055L291.5,160.7Zm0-18.346-13.935-6.142v15.034L291.5,142.33Zm-13.077-7.8,14.157,6.241,14.158-6.241-14.158-6.24Z" transform="translate(-6.471 -6.471)" fill="#cf001c"/>
      <g id="Group_611" data-name="Group 611" transform="translate(252.558 176.143)">
        <g id="Group_610" data-name="Group 610">
          <path id="Path_233" data-name="Path 233" d="M291.882,351.285a2.323,2.323,0,0,1-2.234-1.936,6.807,6.807,0,0,1-5.505,2.15,7.641,7.641,0,0,1-5.72-1.978,7.178,7.178,0,0,1-1.849-5.032c0-3.57,2.451-6.495,7.656-6.495h5.29v-1.118c0-2.452-1.2-3.527-4.172-3.527a4.81,4.81,0,0,0-4.3,1.849l-3.57-3.484c2.193-2.409,4.343-3.1,8.086-3.1,6.28,0,9.548,2.667,9.548,7.914v14.752Zm-2.363-9.463h-4.431c-2.021,0-3.139.947-3.139,2.538,0,1.549,1.032,2.581,3.225,2.581,1.549,0,2.538-.13,3.528-1.075a3.684,3.684,0,0,0,.817-2.839Z" transform="translate(-276.573 -328.619)" fill="#fff"/>
          <path id="Path_234" data-name="Path 234" d="M425.831,351.945h-4.6l-4.688-14.064-4.688,14.064h-4.6l-6.881-22.408H406.3l3.613,13.849,4.558-13.849h4.086l4.6,13.849,3.612-13.849h5.893Z" transform="translate(-365.578 -329.279)" fill="#fff"/>
        </g>
        <path id="Path_235" data-name="Path 235" d="M352.372,329.514v4.763h4.819v10.987c0,1.333-.56,2.021-1.979,2.021h-4.847v4.731h5.879c4.6,0,6.537-3.226,6.537-6.409V329.514Z" transform="translate(-329.626 -329.263)" fill="#fff"/>
      </g>
      <g id="Group_613" data-name="Group 613" transform="translate(246.754 209.882)">
        <g id="Group_612" data-name="Group 612" transform="translate(0 0)">
          <path id="Path_236" data-name="Path 236" d="M257.752,453.063a1.54,1.54,0,0,0,1.632,1.66,2.064,2.064,0,0,0,1.689-.7l1.131,1.1a3.552,3.552,0,0,1-2.834,1.174c-1.76,0-3.449-.8-3.449-3.822,0-2.433,1.317-3.807,3.249-3.807,2.075,0,3.249,1.517,3.249,3.564v.83Zm2.662-2.075a1.39,1.39,0,0,0-2.491,0,2.054,2.054,0,0,0-.172.8h2.834A2.054,2.054,0,0,0,260.414,450.988Z" transform="translate(-255.92 -448.669)" fill="#1a1818"/>
          <path id="Path_237" data-name="Path 237" d="M290.2,456.212V451.7a1.243,1.243,0,1,0-2.476,0v4.508H285.86v-7.457h1.818v.687a2.552,2.552,0,0,1,1.861-.773,2.423,2.423,0,0,1,1.76.658,2.763,2.763,0,0,1,.758,2.118v4.766Z" transform="translate(-277.446 -448.669)" fill="#1a1818"/>
          <path id="Path_238" data-name="Path 238" d="M317.52,459.032a3.486,3.486,0,0,1-2.705-.974l1.159-1.174a1.9,1.9,0,0,0,1.46.573,1.41,1.41,0,0,0,1.5-1.546v-.759a2.185,2.185,0,0,1-1.775.745,2.481,2.481,0,0,1-1.775-.659c-.7-.7-.759-1.66-.759-2.963s.057-2.247.759-2.948a2.518,2.518,0,0,1,1.789-.658,2.184,2.184,0,0,1,1.818.787v-.7h1.8v7.185A3.028,3.028,0,0,1,317.52,459.032Zm.186-8.688c-1.1,0-1.217.944-1.217,1.932s.115,1.946,1.217,1.946,1.231-.959,1.231-1.946S318.808,450.344,317.706,450.344Z" transform="translate(-298.13 -448.669)" fill="#1a1818"/>
          <path id="Path_239" data-name="Path 239" d="M344.721,456.432v-7.457h1.861v7.457Z" transform="translate(-319.765 -448.889)" fill="#1a1818"/>
          <path id="Path_240" data-name="Path 240" d="M363.774,456.212V451.7a1.244,1.244,0,1,0-2.476,0v4.508h-1.861v-7.457h1.818v.687a2.552,2.552,0,0,1,1.861-.773,2.422,2.422,0,0,1,1.76.658,2.763,2.763,0,0,1,.759,2.118v4.766Z" transform="translate(-330.345 -448.669)" fill="#1a1818"/>
          <path id="Path_241" data-name="Path 241" d="M389.834,453.063a1.54,1.54,0,0,0,1.631,1.66,2.064,2.064,0,0,0,1.689-.7l1.131,1.1a3.553,3.553,0,0,1-2.834,1.174c-1.76,0-3.449-.8-3.449-3.822,0-2.433,1.317-3.807,3.249-3.807,2.075,0,3.249,1.517,3.249,3.564v.83Zm2.662-2.075a1.39,1.39,0,0,0-2.491,0,2.054,2.054,0,0,0-.171.8h2.833A2.054,2.054,0,0,0,392.5,450.988Z" transform="translate(-350.882 -448.669)" fill="#1a1818"/>
          <path id="Path_242" data-name="Path 242" d="M418.449,453.063a1.54,1.54,0,0,0,1.632,1.66,2.064,2.064,0,0,0,1.689-.7l1.131,1.1a3.553,3.553,0,0,1-2.834,1.174c-1.76,0-3.449-.8-3.449-3.822,0-2.433,1.317-3.807,3.249-3.807,2.075,0,3.249,1.517,3.249,3.564v.83Zm2.662-2.075a1.389,1.389,0,0,0-2.49,0,2.054,2.054,0,0,0-.172.8h2.834A2.049,2.049,0,0,0,421.111,450.988Z" transform="translate(-371.455 -448.669)" fill="#1a1818"/>
          <path id="Path_243" data-name="Path 243" d="M450.607,450.787a1.244,1.244,0,0,0-2.19.931v4.494h-1.861v-7.457h1.817v.716a2.525,2.525,0,0,1,1.875-.8,2.249,2.249,0,0,1,1.76.7Z" transform="translate(-392.981 -448.669)" fill="#1a1818"/>
          <path id="Path_244" data-name="Path 244" d="M516.812,459.032a3.486,3.486,0,0,1-2.705-.974l1.159-1.174a1.9,1.9,0,0,0,1.46.573,1.41,1.41,0,0,0,1.5-1.546v-.759a2.185,2.185,0,0,1-1.775.745,2.481,2.481,0,0,1-1.775-.659c-.7-.7-.759-1.66-.759-2.963s.057-2.247.759-2.948a2.518,2.518,0,0,1,1.789-.658,2.183,2.183,0,0,1,1.818.787v-.7h1.8v7.185A3.028,3.028,0,0,1,516.812,459.032Zm.186-8.688c-1.1,0-1.217.944-1.217,1.932s.115,1.946,1.217,1.946,1.231-.959,1.231-1.946S518.1,450.344,517,450.344Z" transform="translate(-441.413 -448.669)" fill="#1a1818"/>
        </g>
        <path id="Path_245" data-name="Path 245" d="M470.437,456.432v-7.457H472.3v7.457Z" transform="translate(-410.15 -448.889)" fill="#1a1818"/>
        <path id="Path_246" data-name="Path 246" d="M489.49,456.212V451.7a1.244,1.244,0,1,0-2.476,0v4.508h-1.861v-7.457h1.818v.687a2.552,2.552,0,0,1,1.861-.773,2.423,2.423,0,0,1,1.76.658,2.763,2.763,0,0,1,.758,2.118v4.766Z" transform="translate(-420.73 -448.669)" fill="#1a1818"/>
      </g>
      <rect id="Rectangle_1145" data-name="Rectangle 1145" width="85.867" height="106.232" transform="translate(243.171 116.542)" fill="none"/>
    </g>
  </g>
</svg>
