<?xml version="1.0" encoding="utf-8"?>
<!-- Generator: Adobe Illustrator 24.1.2, SVG Export Plug-In . SVG Version: 6.00 Build 0)  -->
<svg version="1.1" id="Layer_1" xmlns="http://www.w3.org/2000/svg" xmlns:xlink="http://www.w3.org/1999/xlink" x="0px" y="0px"
	 viewBox="0 0 595.28 841.89" style="enable-background:new 0 0 595.28 841.89;" xml:space="preserve">
<style type="text/css">
	.st0{fill:#FDCC9A;}
	.st1{fill:#EA4826;}
	.st2{fill:#F99F20;}
	.st3{fill:#333333;}
	.st4{fill:#FFFFFF;stroke:#000000;stroke-miterlimit:10;}
	.st5{fill:#E06E26;}
	.st6{fill:#E6E7E8;stroke:#000000;stroke-miterlimit:10;}
	.st7{fill:#EF3B39;}
	.st8{fill:#F89938;}
	.st9{fill:#ED4824;}
	.st10{fill:none;}
	.st11{font-family:'MyriadPro-Regular';}
	.st12{font-size:8px;}
	.st13{font-size:12px;}
	.st14{fill:#FFFFFF;}
</style>
<rect x="94.61" y="22.19" class="st0" width="59.48" height="59.48"/>
<rect x="165.36" y="21.09" class="st1" width="61.68" height="61.68"/>
<rect x="25.61" y="22.19" class="st2" width="59.48" height="59.48"/>
<rect x="238.3" y="21.09" class="st3" width="61.68" height="61.68"/>
<rect x="311.06" y="21.09" class="st4" width="61.68" height="61.68"/>
<rect x="97.69" y="155.87" class="st2" width="59.48" height="59.48"/>
<rect x="168.44" y="154.77" class="st5" width="61.68" height="61.68"/>
<rect x="27.65" y="155.87" class="st6" width="59.48" height="59.48"/>
<rect x="241.38" y="154.77" class="st7" width="61.68" height="61.68"/>
<rect x="95.65" y="89.03" class="st8" width="59.48" height="59.48"/>
<rect x="166.39" y="87.93" class="st9" width="61.68" height="61.68"/>
<rect x="25.61" y="89.03" class="st6" width="59.48" height="59.48"/>
<rect x="239.33" y="87.93" class="st3" width="61.68" height="61.68"/>
<rect x="97.69" y="135.07" class="st10" width="67.2" height="13.45"/>
<text transform="matrix(1 0 0 1 97.6915 143.5876)"><tspan x="0" y="0" class="st11 st12">#FF9933</tspan><tspan x="28.18" y="0" class="st11 st13"> </tspan></text>
<rect x="93.83" y="68.23" class="st10" width="67.2" height="13.45"/>
<text transform="matrix(1 0 0 1 93.8346 76.7458)"><tspan x="0" y="0" class="st11 st12">#FFCC99</tspan><tspan x="29.26" y="0" class="st11 st13"> </tspan></text>
<rect x="238.62" y="135.07" class="st10" width="67.2" height="13.45"/>
<text transform="matrix(1 0 0 1 238.6213 140.7473)" class="st14 st11 st12">#333333</text>
<rect x="238.62" y="66.29" class="st10" width="67.2" height="13.45"/>
<text transform="matrix(1 0 0 1 238.6213 71.9688)" class="st14 st11 st12">#333333</text>
<rect x="27.65" y="68.23" class="st10" width="67.2" height="13.45"/>
<text transform="matrix(1 0 0 1 27.6501 76.7458)"><tspan x="0" y="0" class="st11 st12">#FF9933</tspan><tspan x="28.18" y="0" class="st11 st13"> </tspan></text>
<rect x="97.69" y="201.91" class="st10" width="67.2" height="13.45"/>
<text transform="matrix(1 0 0 1 97.6915 210.4295)"><tspan x="0" y="0" class="st11 st12">#FF9933</tspan><tspan x="28.18" y="0" class="st11 st13"> </tspan></text>
<rect x="165.68" y="68.23" class="st10" width="67.2" height="13.45"/>
<text transform="matrix(1 0 0 1 165.6782 73.9054)" class="st11 st12">#EA4826</text>
<rect x="168.16" y="135.07" class="st10" width="67.2" height="13.45"/>
<text transform="matrix(1 0 0 1 168.1564 140.7473)" class="st11 st12">#EA4826</text>
<rect x="169.54" y="200.81" class="st10" width="67.2" height="13.45"/>
<text transform="matrix(1 0 0 1 169.5352 206.4897)" class="st11 st12">E#06E26</text>
<rect x="243.87" y="203.01" class="st10" width="67.2" height="13.45"/>
<text transform="matrix(1 0 0 1 243.8662 208.6886)" class="st11 st12">#FF3333</text>
<rect x="27.65" y="132.86" class="st10" width="67.2" height="13.45"/>
<text transform="matrix(1 0 0 1 27.6501 141.3776)"><tspan x="0" y="0" class="st11 st12">#e6e7e8</tspan><tspan x="28.31" y="0" class="st11 st13"> </tspan></text>
<rect x="30.49" y="200.81" class="st10" width="67.2" height="13.45"/>
<text transform="matrix(1 0 0 1 30.4929 206.4897)" class="st11 st12">#e6e7e8</text>
<rect x="311.06" y="68.23" class="st10" width="67.2" height="13.45"/>
<text transform="matrix(1 0 0 1 311.0649 73.9054)" class="st11 st12">#ffffff</text>
</svg>
